<?xml version="1.0" encoding="UTF-8"?>
<svg version="1.1" xmlns="http://www.w3.org/2000/svg" width="512" height="512">
<path d="M0 0 C8.39820934 5.19401449 14.32757046 11.66714932 17.0546875 21.23828125 C19.13067044 31.28084874 17.66033722 40.09072366 12.78515625 49.09765625 C8.19082445 55.91355102 1.19291594 60.48401802 -6.578125 62.96875 C-17.8896342 65.13780284 -27.55461032 63.0400719 -37.0078125 56.76171875 C-42.56661571 52.34173729 -46.05230546 46.20874689 -47.7578125 39.38671875 C-58.6478125 39.38671875 -69.5378125 39.38671875 -80.7578125 39.38671875 C-80.7578125 73.04671875 -80.7578125 106.70671875 -80.7578125 141.38671875 C-79.1078125 141.71671875 -77.4578125 142.04671875 -75.7578125 142.38671875 C-73.36355848 145.19377519 -72.79221842 147.02201599 -72.4453125 150.69921875 C-72.79435917 154.81796949 -73.6420417 158.41178526 -74.7578125 162.38671875 C-74.11714844 162.72703125 -73.47648437 163.06734375 -72.81640625 163.41796875 C-65.94134684 167.27046106 -59.9399962 171.63095659 -56.57145691 178.97221375 C-54.95167008 181.67483011 -54.95167008 181.67483011 -51.85346985 182.0259552 C-50.0780909 182.03594795 -50.0780909 182.03594795 -48.2668457 182.04614258 C-47.6129184 182.05662628 -46.95899109 182.06710999 -46.2852478 182.07791138 C-44.12588216 182.10669111 -41.96811703 182.10036767 -39.80859375 182.09375 C-38.31070442 182.10686352 -36.81283279 182.12216669 -35.31498718 182.13957214 C-31.37428489 182.17947679 -27.43404458 182.18961598 -23.49316406 182.19360352 C-18.76398127 182.20456394 -14.03504582 182.25241083 -9.30605316 182.29409027 C-2.12309847 182.35326014 5.05856862 182.36550538 12.2421875 182.38671875 C11.9121875 171.49671875 11.5821875 160.60671875 11.2421875 149.38671875 C7.9421875 147.73671875 4.6421875 146.08671875 1.2421875 144.38671875 C-5.2981546 138.91856388 -10.18836755 131.93859223 -11.7578125 123.38671875 C-12.55974985 111.86658031 -11.24481425 103.44067997 -3.76953125 94.4609375 C3.13687566 87.33996261 11.31271816 84.06714966 21.0546875 82.94921875 C32.39790276 83.545024 40.69536542 88.12600809 48.2421875 96.38671875 C53.96700199 102.99227393 55.62873622 111.94138139 55.2421875 120.51171875 C54.50881265 126.54431834 52.48889626 131.28601509 49.2421875 136.38671875 C48.83226562 137.03511719 48.42234375 137.68351563 48 138.3515625 C44.98285194 142.43096091 41.57620251 144.39066558 37.02734375 146.58984375 C35.94461182 147.11739258 34.86187988 147.64494141 33.74633789 148.18847656 C32.50678345 148.78160645 32.50678345 148.78160645 31.2421875 149.38671875 C31.22760498 150.69342529 31.21302246 152.00013184 31.19799805 153.34643555 C31.13995935 158.2015295 31.06272634 163.05616238 30.97973633 167.91088867 C30.94651328 170.01074736 30.9184732 172.11069478 30.89575195 174.21069336 C30.86215814 177.23199219 30.80983916 180.25247976 30.75390625 183.2734375 C30.74751633 184.21007736 30.7411264 185.14671722 30.73454285 186.11174011 C30.54162343 194.69368495 30.54162343 194.69368495 27.2421875 198.38671875 C23.13049369 200.5146478 19.32271638 200.66146867 14.78979492 200.61376953 C14.057547 200.61406158 13.32529907 200.61435364 12.57086182 200.61465454 C10.16300391 200.61326695 7.75545975 200.59773293 5.34765625 200.58203125 C3.67328561 200.57829908 1.99891279 200.57545307 0.32453918 200.57345581 C-4.07313106 200.56583538 -8.47066829 200.54620059 -12.86828613 200.52404785 C-17.35943808 200.50355513 -21.85061161 200.49444677 -26.34179688 200.484375 C-35.14719632 200.46295315 -43.95248784 200.42883647 -52.7578125 200.38671875 C-52.89058594 201.63453125 -53.02335937 202.88234375 -53.16015625 204.16796875 C-53.57494302 208.06615894 -54.79177019 210.96751473 -56.7578125 214.38671875 C-56.16742188 214.66515625 -55.57703125 214.94359375 -54.96875 215.23046875 C-45.03061706 220.42779622 -40.17991045 230.1204249 -36.7578125 240.38671875 C-28.3428125 240.88171875 -28.3428125 240.88171875 -19.7578125 241.38671875 C-19.0978125 239.40671875 -18.4378125 237.42671875 -17.7578125 235.38671875 C-15.62568427 231.8102456 -14.23661238 229.70591867 -10.7578125 227.38671875 C-7.05236663 227.18821272 -4.28775863 227.21007004 -0.7578125 228.38671875 C0.92294981 227.75643288 2.59014294 227.08883769 4.2421875 226.38671875 C5.2321875 226.38671875 6.2221875 226.38671875 7.2421875 226.38671875 C7.3453125 225.62359375 7.4484375 224.86046875 7.5546875 224.07421875 C8.2948976 221.18067019 8.95208044 220.2188044 11.2421875 218.38671875 C14.99650185 216.50956157 19.25116677 217.5486044 23.2421875 218.38671875 C26.47306211 219.74307649 29.32948662 221.44878629 32.2421875 223.38671875 C33.1290625 223.94359375 34.0159375 224.50046875 34.9296875 225.07421875 C41.76091736 231.90544861 45.52230207 240.58074683 45.5546875 250.19921875 C45.35657935 260.67693889 42.6254532 267.81851576 35.2421875 275.38671875 C25.63487572 283.20623512 16.23072534 284.31524276 4.2421875 283.38671875 C-3.88960207 281.60922024 -10.65025218 276.96302648 -15.328125 270.07421875 C-17.40278965 266.47022987 -18.74139693 263.45238103 -19.7578125 259.38671875 C-25.3678125 259.38671875 -30.9778125 259.38671875 -36.7578125 259.38671875 C-37.0878125 261.36671875 -37.4178125 263.34671875 -37.7578125 265.38671875 C-42.59610595 276.46593796 -49.3143205 284.286065 -59.7578125 290.38671875 C-62.0625 291.08203125 -62.0625 291.08203125 -63.7578125 291.38671875 C-63.4690625 291.94101562 -63.1803125 292.4953125 -62.8828125 293.06640625 C-62.5115625 293.79085938 -62.1403125 294.5153125 -61.7578125 295.26171875 C-61.3865625 295.98101562 -61.0153125 296.7003125 -60.6328125 297.44140625 C-59.7578125 299.38671875 -59.7578125 299.38671875 -59.7578125 301.38671875 C-58.6892804 301.3778363 -57.62074829 301.36895386 -56.51983643 301.35980225 C-46.45529909 301.27875391 -36.39082786 301.21877137 -26.32603836 301.17947006 C-21.15146546 301.15858562 -15.97715578 301.13025217 -10.80273438 301.08496094 C-5.81012125 301.04153399 -0.81776147 301.0175881 4.17502594 301.00720978 C6.08086384 300.99981275 7.98668771 300.98536821 9.89241791 300.96379852 C12.5597695 300.93480629 15.22607116 300.93076097 17.89355469 300.93261719 C18.6833371 300.91823608 19.47311951 300.90385498 20.28683472 300.88903809 C23.8593701 300.91598051 25.83358144 301.07047573 28.70147705 303.2901001 C31.81318748 307.52455579 31.39305613 311.3664951 31.3671875 316.44921875 C31.36525391 317.3621167 31.36332031 318.27501465 31.36132812 319.21557617 C31.29236182 330.61513139 30.77498705 342.00096241 30.2421875 353.38671875 C31.4180542 353.60606079 31.4180542 353.60606079 32.61767578 353.82983398 C40.22703286 355.44443338 45.86290815 361.25128169 50.2421875 367.38671875 C54.99210298 375.10173299 56.20436265 384.11516063 54.6796875 393.01171875 C52.27270765 401.81074442 46.85836197 409.3931574 39.2421875 414.38671875 C30.57189205 419.01728859 20.97281468 419.95565116 11.41015625 417.7265625 C5.27147882 415.54832212 0.77484912 411.99316789 -3.7578125 407.38671875 C-4.5003125 406.64421875 -5.2428125 405.90171875 -6.0078125 405.13671875 C-11.31119266 396.80283564 -12.94911674 388.16027597 -11.7578125 378.38671875 C-9.23830329 368.3653001 -3.60201575 361.16719446 4.8984375 355.515625 C7.2421875 354.38671875 7.2421875 354.38671875 13.2421875 353.38671875 C13.2421875 341.83671875 13.2421875 330.28671875 13.2421875 318.38671875 C-10.8478125 318.38671875 -34.9378125 318.38671875 -59.7578125 318.38671875 C-60.4178125 320.36671875 -61.0778125 322.34671875 -61.7578125 324.38671875 C-65.7777164 331.38432924 -71.15126908 337.37948065 -78.7578125 340.38671875 C-79.4178125 340.38671875 -80.0778125 340.38671875 -80.7578125 340.38671875 C-80.54125 340.93199219 -80.3246875 341.47726562 -80.1015625 342.0390625 C-77.66049158 348.65029623 -76.494125 354.57729801 -78.75668335 361.39784241 C-80.11221827 366.08864643 -80.06537126 370.69187197 -80.07666016 375.54467773 C-80.08670578 376.54056412 -80.0967514 377.5364505 -80.10710144 378.56251526 C-80.13785435 381.8359421 -80.15494674 385.10928745 -80.171875 388.3828125 C-80.19059298 390.65968015 -80.21016686 392.93654091 -80.2305603 395.21339417 C-80.28182082 401.19245333 -80.32147919 407.17153497 -80.35870361 413.1506958 C-80.39878131 419.25742119 -80.44985649 425.36405356 -80.5 431.47070312 C-80.59668741 443.4426494 -80.68009836 455.41463426 -80.7578125 467.38671875 C-64.4228125 466.89171875 -64.4228125 466.89171875 -47.7578125 466.38671875 C-46.1078125 463.08671875 -44.4578125 459.78671875 -42.7578125 456.38671875 C-37.48097944 449.28658971 -30.39630471 445.11441719 -21.7578125 443.38671875 C-10.00239897 442.5020856 -0.90472843 444.80147139 8.2421875 452.38671875 C12.67787736 456.79451119 15.14938122 461.01318557 15.48828125 467.33203125 C15.09835736 470.58758626 13.64124398 472.26184015 11.2421875 474.38671875 C10.5821875 474.38671875 9.9221875 474.38671875 9.2421875 474.38671875 C9.2628125 475.60359375 9.2834375 476.82046875 9.3046875 478.07421875 C9.31829489 480.64147951 9.17869926 482.67241584 8.6171875 485.19921875 C7.93546835 487.67122721 7.93546835 487.67122721 10.2421875 490.38671875 C10.81366719 494.71363642 10.62340544 496.7718511 8.3046875 500.51171875 C3.09829049 506.06025042 -3.80959788 509.12088973 -11.296875 509.625 C-21.6514832 509.90769804 -29.54741562 508.89104643 -38.0078125 502.38671875 C-41.25133585 499.31143341 -43.06057491 496.15272684 -44.9921875 492.13671875 C-45.51522461 491.0590625 -46.03826172 489.98140625 -46.57714844 488.87109375 C-46.96676758 488.05125 -47.35638672 487.23140625 -47.7578125 486.38671875 C-49.06975586 486.36689941 -50.38169922 486.34708008 -51.73339844 486.32666016 C-56.60143205 486.25058125 -61.46916766 486.16186711 -66.33691406 486.06933594 C-68.44362504 486.03105569 -70.55040117 485.99620115 -72.65722656 485.96484375 C-75.68578371 485.91917277 -78.71389272 485.8611813 -81.7421875 485.80078125 C-82.68398865 485.78923004 -83.62578979 485.77767883 -84.59613037 485.76577759 C-85.91704681 485.73597305 -85.91704681 485.73597305 -87.26464844 485.70556641 C-88.03742126 485.69224274 -88.81019409 485.67891907 -89.60638428 485.66519165 C-92.10856778 485.34131829 -93.65653847 484.78827513 -95.7578125 483.38671875 C-97.45009516 480.586442 -98.01100615 478.47580308 -98.0362854 475.22320557 C-98.05303062 473.99069817 -98.05303062 473.99069817 -98.07011414 472.73329163 C-98.07227432 471.84065109 -98.07443451 470.94801056 -98.07666016 470.02832031 C-98.08670578 469.08163986 -98.0967514 468.13495941 -98.10710144 467.15959167 C-98.13797877 464.03218184 -98.15498135 460.9048578 -98.171875 457.77734375 C-98.19058297 455.60828918 -98.2101561 453.43924191 -98.2305603 451.27020264 C-98.28192659 445.56236067 -98.32152834 439.8544951 -98.35870361 434.14654541 C-98.39871501 428.32159565 -98.44982043 422.49674447 -98.5 416.671875 C-98.59681257 405.24355879 -98.68120038 393.81518698 -98.7578125 382.38671875 C-100.15700928 382.86890869 -100.15700928 382.86890869 -101.58447266 383.36083984 C-104.53002015 384.31307793 -107.06149651 384.76269313 -110.1328125 385.01171875 C-111.00679688 385.08648437 -111.88078125 385.16125 -112.78125 385.23828125 C-113.43351562 385.28726562 -114.08578125 385.33625 -114.7578125 385.38671875 C-114.9434375 386.21171875 -115.1290625 387.03671875 -115.3203125 387.88671875 C-118.18225608 394.85492921 -124.26741051 401.33962372 -131.1484375 404.4765625 C-142.97471168 409.33501724 -154.64167649 410.21815315 -166.7578125 405.38671875 C-167.4178125 405.05671875 -168.0778125 404.72671875 -168.7578125 404.38671875 C-168.7578125 414.28671875 -168.7578125 424.18671875 -168.7578125 434.38671875 C-167.1078125 434.71671875 -165.4578125 435.04671875 -163.7578125 435.38671875 C-155.20086268 439.42301583 -148.98890866 445.48317854 -145.44921875 454.30859375 C-142.45756008 463.30047179 -142.91390339 472.70179629 -146.7578125 481.38671875 C-151.44966724 489.36287182 -158.0772784 495.51939083 -166.8203125 498.69140625 C-175.23879935 500.68408 -184.50738729 500.57744552 -192.41015625 496.84375 C-201.49321279 491.20651192 -207.03638555 484.60828655 -210.0078125 474.44921875 C-211.90138862 465.6978264 -211.0500649 457.00350087 -206.46875 449.1875 C-201.84776924 442.70082915 -196.19108558 437.42760319 -188.7578125 434.38671875 C-187.7678125 434.38671875 -186.7778125 434.38671875 -185.7578125 434.38671875 C-185.7578125 424.48671875 -185.7578125 414.58671875 -185.7578125 404.38671875 C-188.0678125 405.37671875 -190.3778125 406.36671875 -192.7578125 407.38671875 C-203.8970325 410.35717742 -215.88343114 408.86214746 -225.8828125 403.26171875 C-230.82547307 399.94651959 -236.9353219 394.8329611 -238.35400391 388.88867188 C-239.63044222 385.97971312 -239.63044222 385.97971312 -243.453125 385.0234375 C-244.92487076 384.68533374 -246.40190722 384.3696325 -247.8828125 384.07421875 C-249.01396484 383.82188477 -249.01396484 383.82188477 -250.16796875 383.56445312 C-252.02708956 383.15262257 -253.89200425 382.76710563 -255.7578125 382.38671875 C-255.75923752 383.61589523 -255.76066254 384.84507172 -255.76213074 386.11149597 C-255.77879558 397.69172639 -255.82155375 409.27160517 -255.88990307 420.85164928 C-255.92420314 426.80520357 -255.9492878 432.75850042 -255.95336914 438.7121582 C-255.95764552 444.45713084 -255.98605416 450.20152243 -256.03124428 455.94631386 C-256.04424029 458.13873219 -256.04851956 460.33121998 -256.04396629 462.5236721 C-256.03907545 465.59348778 -256.06508668 468.66159536 -256.09838867 471.73120117 C-256.08976303 472.63894791 -256.08113739 473.54669464 -256.07225037 474.48194885 C-256.15252708 478.89225023 -256.33642458 480.82208809 -259.04673767 484.45372009 C-261.66108644 486.31775298 -262.67270993 487.00842915 -265.79443359 486.97021484 C-266.55227142 486.97306488 -267.31010925 486.97591492 -268.09091187 486.97885132 C-269.29887924 486.94484726 -269.29887924 486.94484726 -270.53125 486.91015625 C-271.3732193 486.90545319 -272.2151886 486.90075012 -273.08267212 486.89590454 C-275.76689522 486.8746182 -278.44912172 486.81809071 -281.1328125 486.76171875 C-282.92966867 486.74520115 -284.7265462 486.73085579 -286.5234375 486.71875 C-293.69213946 486.64552467 -300.6717622 486.5525986 -307.7578125 485.38671875 C-307.7990625 486.21171875 -307.8403125 487.03671875 -307.8828125 487.88671875 C-309.72050977 495.23750784 -315.57212398 501.20519331 -321.7578125 505.38671875 C-330.27958447 510.39403731 -340.11432188 510.89782227 -349.66015625 508.7265625 C-359.23076667 505.32007405 -366.07158444 498.26588771 -370.7578125 489.38671875 C-374.08920162 481.1863763 -373.57122638 472.04072835 -370.796875 463.76953125 C-367.17540774 455.46466273 -360.39697006 448.86569071 -352.2578125 445.01171875 C-344.05664015 442.03629341 -334.54091962 442.02323994 -326.3203125 444.94921875 C-318.98960211 448.40756053 -312.61997808 454.21626404 -308.7578125 461.38671875 C-308.0978125 463.36671875 -307.4378125 465.34671875 -306.7578125 467.38671875 C-290.4228125 467.88171875 -290.4228125 467.88171875 -273.7578125 468.38671875 C-273.84338616 454.96487216 -273.93717411 441.5431515 -274.04533958 428.12146759 C-274.09524091 421.88894365 -274.14157164 415.65643616 -274.1796875 409.42382812 C-274.21661794 403.40668742 -274.26299922 397.38968637 -274.31587601 391.37266541 C-274.33437869 389.07944697 -274.3495018 386.78619864 -274.36115646 384.49293518 C-274.3780894 381.27574426 -274.40714185 378.0588703 -274.43896484 374.84179688 C-274.44112503 373.89808228 -274.44328522 372.95436768 -274.44551086 371.98205566 C-274.5152931 366.44329097 -275.26808801 361.71959112 -276.7578125 356.38671875 C-276.85228519 350.82857523 -275.79922134 345.5582878 -273.7578125 340.38671875 C-274.2940625 340.30421875 -274.8303125 340.22171875 -275.3828125 340.13671875 C-281.44741033 338.22158259 -286.95676275 333.4287505 -290.7578125 328.38671875 C-292.0778125 325.41671875 -293.3978125 322.44671875 -294.7578125 319.38671875 C-318.8478125 319.05671875 -342.9378125 318.72671875 -367.7578125 318.38671875 C-367.2628125 326.80171875 -367.2628125 326.80171875 -366.7578125 335.38671875 C-366.69973231 338.58577585 -366.65526325 341.75452103 -366.6953125 344.94921875 C-366.69982422 345.68333984 -366.70433594 346.41746094 -366.70898438 347.17382812 C-366.72034169 348.91149744 -366.73824008 350.64912255 -366.7578125 352.38671875 C-365.860625 352.49886719 -364.9634375 352.61101562 -364.0390625 352.7265625 C-356.65672059 354.21181938 -351.16532055 359.23055058 -346.97265625 365.3046875 C-341.91579204 373.97127472 -340.57175849 383.02810304 -342.8828125 392.76171875 C-345.59568557 401.96025115 -350.54958177 408.43950992 -358.7578125 413.38671875 C-366.56864244 417.50192874 -375.06034509 418.79011099 -383.67578125 416.66796875 C-388.96167149 414.89887188 -393.73356274 413.28808906 -396.7578125 408.38671875 C-396.95953791 405.57973118 -396.87886906 402.85765697 -396.7578125 400.046875 C-396.7578125 396.39985616 -397.57626114 394.2954539 -399.7578125 391.38671875 C-401.74101268 390.35380199 -403.74129056 389.35296885 -405.7578125 388.38671875 C-407.84095401 386.1019829 -408.68411063 384.51458072 -408.88671875 381.4140625 C-408.37938469 372.69714088 -403.93526977 364.42689919 -397.7578125 358.38671875 C-389.14490927 352.38671875 -389.14490927 352.38671875 -384.7578125 352.38671875 C-384.76669495 351.80678162 -384.77557739 351.22684448 -384.784729 350.6293335 C-384.87320279 344.59494887 -384.93354672 338.56074837 -384.97753906 332.52587891 C-384.99765806 330.27352414 -385.02495658 328.02122162 -385.05957031 325.76904297 C-385.10807459 322.53209544 -385.13077855 319.29583828 -385.1484375 316.05859375 C-385.16908264 315.05117126 -385.18972778 314.04374878 -385.21099854 313.00579834 C-385.21130066 312.06512512 -385.21160278 311.1244519 -385.21191406 310.15527344 C-385.22079651 309.32920593 -385.22967896 308.50313843 -385.23883057 307.65203857 C-384.5420713 304.37070118 -383.51055457 303.30336899 -380.7578125 301.38671875 C-377.85059558 300.9839347 -375.3168607 300.82230041 -372.40917969 300.84082031 C-371.56978851 300.83048264 -370.73039734 300.82014496 -369.86557007 300.80949402 C-367.09508089 300.78003015 -364.32532114 300.7785661 -361.5546875 300.77734375 C-359.63224898 300.76236451 -357.70982334 300.7456379 -355.78741455 300.72723389 C-350.73054417 300.6835194 -345.67384739 300.66355218 -340.61682129 300.64849854 C-335.45538042 300.62894225 -330.29412745 300.58697057 -325.1328125 300.546875 C-315.0078704 300.47152848 -304.88297026 300.42126388 -294.7578125 300.38671875 C-294.42370361 299.77256104 -294.08959473 299.15840332 -293.74536133 298.52563477 C-293.30216553 297.71795654 -292.85896973 296.91027832 -292.40234375 296.078125 C-291.96510986 295.27834229 -291.52787598 294.47855957 -291.07739258 293.65454102 C-289.53948267 291.01149843 -287.76466317 288.69088064 -285.7578125 286.38671875 C-291.94822192 281.40870266 -291.94822192 281.40870266 -299.31640625 279.28515625 C-301.60880903 279.6499342 -301.60880903 279.6499342 -303.6875 280.3125 C-305.7578125 280.38671875 -305.7578125 280.38671875 -308.3125 278.8046875 C-310.99468487 276.15249511 -312.39363245 273.78499255 -314.0078125 270.38671875 C-314.50796875 269.35546875 -315.008125 268.32421875 -315.5234375 267.26171875 C-316.7578125 264.38671875 -316.7578125 264.38671875 -317.7578125 260.38671875 C-322.3778125 260.05671875 -326.9978125 259.72671875 -331.7578125 259.38671875 C-332.0878125 260.68609375 -332.4178125 261.98546875 -332.7578125 263.32421875 C-335.63624354 271.86535758 -341.82808879 277.44470359 -349.6796875 281.51171875 C-357.65869223 284.87129969 -369.04865982 284.79898672 -377.1953125 281.88671875 C-386.42532746 277.44263747 -392.01306276 270.79874601 -395.7578125 261.38671875 C-398.09037369 254.38903519 -398.03198727 244.24368811 -395.1328125 237.38671875 C-394.01171875 235.3359375 -394.01171875 235.3359375 -392.7578125 233.38671875 C-392.33371094 232.69191406 -391.90960938 231.99710938 -391.47265625 231.28125 C-387.17369713 224.8986728 -381.58136477 221.03609424 -374.5703125 218.01171875 C-362.4721144 216.02840759 -352.69270923 217.17539248 -342.5078125 224.07421875 C-336.69881427 228.71670415 -333.20907191 234.13042169 -331.7578125 241.38671875 C-326.8078125 241.38671875 -321.8578125 241.38671875 -316.7578125 241.38671875 C-316.2628125 238.41671875 -316.2628125 238.41671875 -315.7578125 235.38671875 C-312.49081512 227.16088606 -306.09362099 219.27725775 -298.7578125 214.38671875 C-298.974375 213.71125 -299.1909375 213.03578125 -299.4140625 212.33984375 C-299.6925 211.4478125 -299.9709375 210.55578125 -300.2578125 209.63671875 C-300.53625 208.755 -300.8146875 207.87328125 -301.1015625 206.96484375 C-301.7578125 204.38671875 -301.7578125 204.38671875 -301.7578125 200.38671875 C-302.68631516 200.39338058 -303.61481781 200.40004242 -304.57145691 200.40690613 C-313.32597764 200.46704211 -322.08042889 200.51270586 -330.83510876 200.54215527 C-335.33588161 200.55780454 -339.83648365 200.57902929 -344.3371582 200.61303711 C-348.68138112 200.64565696 -353.02543983 200.66357732 -357.36977577 200.67135048 C-359.02636614 200.67688928 -360.68294762 200.68770527 -362.339468 200.70390892 C-364.66164882 200.72571845 -366.983153 200.72868426 -369.30541992 200.72729492 C-369.98874893 200.73808075 -370.67207794 200.74886658 -371.37611389 200.75997925 C-376.83054592 200.72471853 -379.94882649 199.19570476 -383.7578125 195.38671875 C-383.99832153 193.28598022 -383.99832153 193.28598022 -383.98486328 190.66162109 C-383.98471222 189.68075531 -383.98456116 188.69988953 -383.98440552 187.68930054 C-383.97408295 186.62780792 -383.96376038 185.56631531 -383.953125 184.47265625 C-383.9502951 183.38787994 -383.94746521 182.30310364 -383.94454956 181.18545532 C-383.93332828 177.71076562 -383.90822012 174.23633093 -383.8828125 170.76171875 C-383.87278522 168.41015996 -383.86365893 166.05859715 -383.85546875 163.70703125 C-383.83338261 157.93350631 -383.79988595 152.16013074 -383.7578125 146.38671875 C-384.37650208 146.18977921 -384.99519165 145.99283966 -385.63262939 145.78993225 C-386.4438324 145.52675705 -387.2550354 145.26358185 -388.09082031 144.99243164 C-388.89513489 144.7336171 -389.69944946 144.47480255 -390.52813721 144.20814514 C-397.15837981 141.76552209 -401.63824361 136.20578519 -404.7578125 130.07421875 C-408.70022987 121.35435811 -409.54954491 111.05105364 -406.1328125 101.94921875 C-401.39096778 92.02098136 -395.14449989 86.26644201 -384.83203125 82.24609375 C-375.50121178 79.63773253 -366.33023455 81.16203229 -357.7578125 85.38671875 C-354.45392073 87.27380648 -351.61878659 89.22627541 -349.3203125 92.32421875 C-348.55658388 95.12455704 -348.51201413 97.49858786 -348.7578125 100.38671875 C-349.4178125 101.37671875 -350.0778125 102.36671875 -350.7578125 103.38671875 C-350.7833214 105.91214105 -350.7833214 105.91214105 -350.3828125 108.57421875 C-350.27195312 109.47527344 -350.16109375 110.37632813 -350.046875 111.3046875 C-349.95148438 111.99175781 -349.85609375 112.67882812 -349.7578125 113.38671875 C-348.82195312 113.58394531 -348.82195312 113.58394531 -347.8671875 113.78515625 C-345.7578125 114.38671875 -345.7578125 114.38671875 -344.0078125 116.01171875 C-342.21999546 119.40857112 -342.31337074 121.57721796 -342.7578125 125.38671875 C-345.6649874 133.73047496 -351.25724654 139.800946 -358.6328125 144.44140625 C-360.7578125 145.38671875 -360.7578125 145.38671875 -366.7578125 146.38671875 C-366.7578125 158.26671875 -366.7578125 170.14671875 -366.7578125 182.38671875 C-344.3178125 182.38671875 -321.8778125 182.38671875 -298.7578125 182.38671875 C-298.0978125 180.73671875 -297.4378125 179.08671875 -296.7578125 177.38671875 C-292.58038083 171.38093748 -287.18868357 166.84445798 -280.7578125 163.38671875 C-280.0978125 163.38671875 -279.4378125 163.38671875 -278.7578125 163.38671875 C-279.08007812 162.5359375 -279.40234375 161.68515625 -279.734375 160.80859375 C-282.53855731 151.43277809 -281.36013415 141.93628708 -276.7578125 133.38671875 C-276.0978125 132.39671875 -275.4378125 131.40671875 -274.7578125 130.38671875 C-274.54402157 127.42833256 -274.44649244 124.5610164 -274.43896484 121.60083008 C-274.42891922 120.70306351 -274.4188736 119.80529694 -274.40852356 118.88032532 C-274.37760707 115.90980679 -274.36063289 112.93937873 -274.34375 109.96875 C-274.32504516 107.91036699 -274.30547227 105.85199171 -274.2850647 103.79362488 C-274.23366521 98.3734695 -274.19408132 92.95328924 -274.15692139 87.53302002 C-274.11693072 82.00307013 -274.06581588 76.47322443 -274.015625 70.94335938 C-273.91877309 60.09121163 -273.83542585 49.23902116 -273.7578125 38.38671875 C-283.9878125 38.38671875 -294.2178125 38.38671875 -304.7578125 38.38671875 C-305.0878125 40.36671875 -305.4178125 42.34671875 -305.7578125 44.38671875 C-309.69952579 54.01296897 -316.09029991 59.9848197 -325.328125 64.44140625 C-334.35391482 67.95304795 -343.88869449 66.87663797 -352.7578125 63.38671875 C-360.74946317 58.83974509 -366.93596302 51.98598863 -370.05859375 43.31640625 C-372.56824095 32.80112468 -371.35221758 22.64266876 -365.7578125 13.38671875 C-360.09866434 5.85791854 -352.10313226 0.83560553 -342.7578125 -0.61328125 C-332.21513739 -1.6149996 -322.84637514 0.90057637 -314.55078125 7.60546875 C-311.3648873 10.77053986 -308.77550343 14.3742652 -306.7578125 18.38671875 C-306.7578125 19.37671875 -306.7578125 20.36671875 -306.7578125 21.38671875 C-305.92233887 21.35642578 -305.08686523 21.32613281 -304.22607422 21.29492188 C-301.05394062 21.18111551 -297.8817365 21.06958429 -294.70947266 20.95947266 C-292.69036974 20.88873522 -290.67135488 20.81549801 -288.65234375 20.7421875 C-282.10822967 20.51652839 -275.56300872 20.32553058 -269.015625 20.23046875 C-267.90590332 20.21177734 -266.79618164 20.19308594 -265.65283203 20.17382812 C-262.73533917 20.38837137 -261.15977641 20.75519609 -258.7578125 22.38671875 C-256.12821261 26.33111858 -256.49245864 29.68951981 -256.53076172 34.2644043 C-256.53046967 35.17192444 -256.53017761 36.07944458 -256.52987671 37.01446533 C-256.53127132 40.01755293 -256.54683877 43.02039318 -256.5625 46.0234375 C-256.56622966 48.10423141 -256.56907685 50.18502707 -256.57107544 52.26582336 C-256.57871558 57.74525797 -256.59836738 63.22458673 -256.6204834 68.70397949 C-256.6409336 74.29417489 -256.65007539 79.88438737 -256.66015625 85.47460938 C-256.68161287 96.44535903 -256.71575345 107.41603009 -256.7578125 118.38671875 C-256.09104492 118.23799316 -255.42427734 118.08926758 -254.73730469 117.93603516 C-253.85204102 117.74702637 -252.96677734 117.55801758 -252.0546875 117.36328125 C-251.18166992 117.17330566 -250.30865234 116.98333008 -249.40917969 116.78759766 C-246.79560997 116.39243362 -244.62280496 116.4594041 -242.0078125 116.76171875 C-239.79387624 116.91285234 -239.79387624 116.91285234 -237.7578125 116.38671875 C-235.94975375 114.59656157 -234.71503053 112.69494578 -233.34375 110.5546875 C-228.40293161 103.80061311 -219.69640721 100.54256006 -211.8203125 98.69921875 C-202.95302503 97.7943935 -193.89539014 98.31792993 -185.7578125 102.38671875 C-186.0878125 92.81671875 -186.4178125 83.24671875 -186.7578125 73.38671875 C-190.0578125 71.73671875 -193.3578125 70.08671875 -196.7578125 68.38671875 C-203.43301193 64.13886457 -207.75413789 56.939741 -209.7578125 49.38671875 C-210.78685512 37.94759385 -209.97378195 28.21350936 -202.4453125 19.07421875 C-195.20282752 11.4795622 -187.38465618 7.50940074 -176.6953125 7.01171875 C-166.29637647 8.00209361 -157.65016036 11.98043932 -150.4453125 19.63671875 C-143.64976186 28.34410955 -142.6258059 37.56847012 -143.7578125 48.38671875 C-145.82745444 57.48579543 -151.93141765 65.35546492 -159.7578125 70.38671875 C-162.7278125 71.37671875 -165.6978125 72.36671875 -168.7578125 73.38671875 C-168.4278125 82.95671875 -168.0978125 92.52671875 -167.7578125 102.38671875 C-163.7978125 100.90171875 -163.7978125 100.90171875 -159.7578125 99.38671875 C-148.3668712 96.72075376 -136.92190487 98.59986759 -126.8828125 104.57421875 C-122.53518063 107.48924986 -120.01686353 110.55411893 -117.15234375 114.86328125 C-115.69827132 116.79628602 -115.69827132 116.79628602 -112.1953125 116.69921875 C-111.0609375 116.59609375 -109.9265625 116.49296875 -108.7578125 116.38671875 C-105.79122447 117.70520232 -104.2259591 118.6733525 -102.4453125 121.38671875 C-101.7578125 123.38671875 -101.7578125 123.38671875 -101.7578125 126.38671875 C-100.7678125 126.38671875 -99.7778125 126.38671875 -98.7578125 126.38671875 C-98.75416687 125.15754227 -98.75052124 123.92836578 -98.74676514 122.66194153 C-98.70983422 111.08173403 -98.65208221 99.50179292 -98.57390976 87.92178822 C-98.53438986 81.96827397 -98.5022234 76.01490865 -98.48681641 70.0612793 C-98.47167974 64.31636365 -98.43728693 58.57185728 -98.38950348 52.82712364 C-98.37465888 50.63470707 -98.36676973 48.44223207 -98.36592865 46.2497654 C-98.36356657 43.18014442 -98.33654714 40.11166149 -98.30371094 37.04223633 C-98.3087413 36.13448959 -98.31377167 35.22674286 -98.31895447 34.29148865 C-98.25072301 30.1725605 -98.09019717 27.93408231 -95.91119385 24.3457489 C-92.86501594 21.57450062 -90.43212521 21.26157414 -86.4699707 21.27319336 C-85.60930496 21.27326889 -84.74863922 21.27334442 -83.8618927 21.27342224 C-82.93680405 21.27858353 -82.01171539 21.28374481 -81.05859375 21.2890625 C-80.10840866 21.29047745 -79.15822357 21.2918924 -78.179245 21.29335022 C-75.14290221 21.29895 -72.10663302 21.31150243 -69.0703125 21.32421875 C-67.01237086 21.32923378 -64.95442806 21.33379668 -62.89648438 21.33789062 C-57.85023204 21.34891935 -52.80403475 21.36618382 -47.7578125 21.38671875 C-47.30643921 19.72974976 -47.30643921 19.72974976 -46.84594727 18.03930664 C-44.4841049 10.11121071 -38.87105034 4.96056551 -32.06640625 0.578125 C-22.66362646 -4.27440941 -9.60156591 -4.60681193 0 0 Z " fill="#2B1100" transform="translate(432.7578125,2.61328125)"/>
<path d="M0 0 C3 2.625 3 2.625 5 5 C5.495 5.495 5.495 5.495 6 6 C6.09910686 7.37137013 6.12922376 8.74780066 6.13142776 10.12274551 C6.13526891 11.01688573 6.13911005 11.91102595 6.1430676 12.83226132 C6.14220112 13.8259116 6.14133463 14.81956187 6.14044189 15.84332275 C6.14341302 16.89012231 6.14638414 17.93692186 6.1494453 19.01544261 C6.15817446 22.55229517 6.15964409 26.08911406 6.16113281 29.62597656 C6.16575804 32.14999973 6.17078229 34.67402219 6.17617798 37.19804382 C6.18933321 44.07620041 6.19578943 50.95434582 6.20018864 57.83251286 C6.20294817 62.12532996 6.20718504 66.41814481 6.21169281 70.71096039 C6.22388913 82.59030135 6.23418707 94.46964049 6.2375679 106.34898758 C6.23789725 107.49031232 6.23789725 107.49031232 6.23823325 108.65469413 C6.23856067 109.79879848 6.23856067 109.79879848 6.2388947 110.96601605 C6.23933817 112.51168648 6.23978473 114.05735691 6.24023438 115.60302734 C6.2404558 116.36973829 6.24067723 117.13644923 6.24090537 117.92639384 C6.24485291 130.34841014 6.26230395 142.77036775 6.2855939 155.19236138 C6.30929788 167.9378294 6.32176935 180.68326796 6.32293582 193.42875838 C6.32385323 200.588059 6.3296218 207.74728321 6.34775543 214.90656281 C6.36475061 221.64028528 6.36641614 228.37383784 6.35761642 235.107584 C6.35684332 237.58237661 6.3612245 240.05717687 6.37107468 242.53195 C6.38371285 245.90438924 6.37796137 249.27630766 6.36749268 252.64874268 C6.37957728 254.12583375 6.37957728 254.12583375 6.39190602 255.63276505 C6.35589428 260.57600535 6.24811653 263.99985308 3 268 C-2.44562426 273.07006396 -8.89381365 273.44909156 -16.0234375 273.31640625 C-21.75828016 272.70679699 -25.50318224 270.57357765 -29.4375 266.4375 C-32.57115819 261.54899322 -32.24380893 256.50163816 -32.25390625 250.89257812 C-32.38809469 247.0823328 -32.69653575 245.32905146 -35.31640625 242.48828125 C-38.95100756 240.47258533 -41.05044368 240.95672097 -45 242 C-47.5654594 244.5654594 -47.54046087 246.47686668 -48 250 C-54.86311527 249.51837788 -59.16243097 248.03350695 -64.640625 243.703125 C-67.45489563 240.17719972 -67.19133693 235.34334838 -67 231 C-64.59365513 226.08268656 -60.04608836 223.74706399 -55 222 C-52.66229772 221.64301098 -50.34408857 221.44530009 -47.98828125 221.25 C-45.84979165 221.07024396 -45.84979165 221.07024396 -43.4375 219.9375 C-41.52877855 217.36487544 -41.4374933 215.09101936 -41.62890625 211.94140625 C-41.92602915 209.81349199 -41.92602915 209.81349199 -43.4375 207.5 C-47.30481968 205.23620311 -50.62241395 205.39619503 -55 206 C-56.67777051 206.48387112 -58.34500843 207.00568041 -60 207.5625 C-65.79803545 209.438335 -70.59740741 209.57135715 -76.19921875 206.984375 C-80.96023548 204.2034484 -84.49773017 201.00453965 -87 196 C-87.37612682 191.48647813 -87.46798614 188.97497112 -85.5 184.875 C-79.20594172 177.63683298 -74.47279497 175.66729104 -64.94921875 174.5390625 C-62.16575489 174.03029692 -60.73154031 173.64170868 -58.625 171.8125 C-56.70703654 169.01808109 -56.70703654 169.01808109 -56.9375 165.375 C-58.11681104 161.62895316 -58.72802206 160.94472057 -62 159 C-69.56501656 157.47877384 -77.11147609 160.00091476 -84 163 C-85.50979316 164.04853749 -87.01060715 165.11018148 -88.5 166.1875 C-90.62109375 167.4921875 -90.62109375 167.4921875 -93 168 C-97.45446782 166.28300513 -101.17335643 163.82951479 -105 161 C-104.84144531 160.41863281 -104.68289062 159.83726562 -104.51953125 159.23828125 C-103.31005429 154.02752713 -103.23802744 149.8039893 -105.9375 145.1875 C-106.618125 144.135625 -107.29875 143.08375 -108 142 C-110.08796621 135.73610136 -110.17875686 128.33831142 -107.9765625 122.1015625 C-104.63897392 116.10865483 -100.07523153 111.26364525 -94 108 C-91.0625 107.8125 -91.0625 107.8125 -88 109 C-87.19175781 109.31324219 -86.38351563 109.62648438 -85.55078125 109.94921875 C-83.81396201 110.63126893 -82.08528791 111.33458207 -80.3671875 112.0625 C-74.63570172 114.33239536 -68.30004045 115.28782067 -62.4375 113 C-60.49390636 110.29586972 -60.56022169 108.20294969 -60.56640625 104.9375 C-61.14323636 102.35995284 -61.85609628 101.54560501 -64 100 C-66.81392004 99.20166583 -66.81392004 99.20166583 -70 98.6875 C-78.0972175 96.93430782 -86.11035444 94.25268777 -91.1875 87.3125 C-93.75394698 82.37775084 -94.09658067 77.4119017 -93 72 C-90.11933878 65.81967229 -85.06759954 61.86831978 -79 59 C-74.71780679 57.4511216 -72.44812595 58.06823286 -68.4375 59.875 C-67.71433594 60.24367187 -66.99117187 60.61234375 -66.24609375 60.9921875 C-62.05867444 62.87106434 -57.92498278 63.17479367 -53.375 63.25 C-52.43398437 63.27578125 -51.49296875 63.3015625 -50.5234375 63.328125 C-47.97822834 63.20314553 -47.97822834 63.20314553 -46.22265625 61.69921875 C-44.19213517 58.87724855 -44.05995924 56.41767672 -44 53 C-46.06403775 50.27252155 -47.33971605 49.15097665 -50.69921875 48.3828125 C-51.68535156 48.29773438 -52.67148438 48.21265625 -53.6875 48.125 C-61.0576838 47.10686947 -66.12218909 44.22663647 -71.0625 38.6875 C-72.90559506 33.40396084 -72.84804781 28.83743692 -70.5 23.75 C-66.54928294 19.40421123 -61.86313432 16.06809036 -56 15 C-54.58465222 14.93543121 -53.16662311 14.91388961 -51.75 14.9375 C-49.89375 14.9684375 -49.89375 14.9684375 -48 15 C-47.34 16.98 -46.68 18.96 -46 21 C-40.09722843 22.26527076 -40.09722843 22.26527076 -34.5 20.6875 C-32.89546258 17.81270379 -32.82137812 16.46803329 -32.6875 13.25 C-32.34748335 8.01838014 -30.6779846 5.32074464 -27.0234375 1.62890625 C-19.04196519 -4.79633304 -8.90828576 -4.32688165 0 0 Z " fill="#FDCA63" transform="translate(241,121)"/>
<path d="M0 0 C3.50400816 1.9541584 5.2116958 3.76961388 7.234375 7.24609375 C7.89387008 10.05098334 8.35096075 12.79782819 8.6796875 15.66015625 C9.30860243 18.59213992 10.16233688 20.09455297 12.234375 22.24609375 C15.60691188 22.74838648 17.49068992 22.65925213 20.484375 20.99609375 C22.35205295 19.37509899 22.35205295 19.37509899 22.984375 17.18359375 C24.234375 15.24609375 24.234375 15.24609375 26.02734375 14.72265625 C26.73503906 14.58601563 27.44273437 14.449375 28.171875 14.30859375 C31.56458219 13.63744115 32.01285237 13.53684221 34.234375 10.62109375 C34.729375 9.44546875 34.729375 9.44546875 35.234375 8.24609375 C40.109375 9.12109375 40.109375 9.12109375 41.234375 10.24609375 C41.3684564 12.28239608 41.4379691 14.32301196 41.48046875 16.36328125 C41.51333984 17.60980469 41.54621094 18.85632813 41.58007812 20.140625 C41.64109395 22.78637507 41.69840802 25.43221319 41.75195312 28.078125 C41.78611328 29.32722656 41.82027344 30.57632813 41.85546875 31.86328125 C41.8805249 33.01425293 41.90558105 34.16522461 41.93139648 35.35107422 C42.0278169 38.44009532 42.0278169 38.44009532 44.234375 41.24609375 C39.0529047 46.09327564 33.27768004 47.85340923 26.359375 48.74609375 C23.3217993 49.04023289 23.3217993 49.04023289 21.296875 50.37109375 C19.5631444 53.43061834 19.81292284 55.814269 20.234375 59.24609375 C21.45872655 61.88847221 21.45872655 61.88847221 24.234375 63.24609375 C31.68293732 64.44221325 39.68948317 62.79053126 46.2578125 59.11328125 C50.00630432 57.46868603 53.54541835 58.87106393 57.234375 60.24609375 C62.99733076 63.43648226 66.71744758 67.16351914 69.234375 73.24609375 C70.03956675 79.58697877 68.81110753 83.95205587 65.234375 89.24609375 C59.31233248 95.52704793 50.5102167 98.38546295 42.1171875 98.95703125 C39.9940738 99.14908366 39.9940738 99.14908366 37.671875 100.93359375 C35.74220225 104.03784992 35.57388584 105.65009723 36.234375 109.24609375 C38.65180027 112.61583807 40.12550933 114.03818144 44.234375 114.80859375 C52.45155162 114.19590953 60.82019915 110.69454764 68.234375 107.24609375 C76.17262122 112.74645217 83.02589221 118.46306257 85.234375 128.24609375 C86.38226552 136.06875505 84.29119879 143.10909425 79.609375 149.4453125 C73.78380025 155.81703488 66.0496858 160.61457758 57.421875 161.74609375 C54.234375 161.24609375 54.234375 161.24609375 50.921875 160.24609375 C46.27293667 158.98536471 42.0188137 158.58875348 37.234375 159.24609375 C34.45872655 160.60371529 34.45872655 160.60371529 33.234375 163.24609375 C32.58765052 167.85537115 32.58765052 167.85537115 34.4765625 171.90234375 C36.62473658 173.54450349 38.13070942 173.80271295 40.796875 174.18359375 C48.10805123 175.51775 54.88455404 177.05956806 59.859375 182.93359375 C62.29490956 186.64916778 63.01838945 189.7225497 62.69140625 194.140625 C61.49196889 199.66623815 57.76688782 203.18928278 53.234375 206.24609375 C46.13954061 210.20282831 40.67071798 209.21269244 33.171875 207.18359375 C28.25594791 205.88837943 23.57948141 205.30805118 18.734375 207.24609375 C16.69377777 209.96689005 16.73704581 212.03843048 16.90234375 215.375 C17.12025901 217.37768498 17.12025901 217.37768498 18.609375 219.18359375 C21.35717331 220.98023111 23.12146587 221.33814696 26.359375 221.49609375 C32.84436345 222.16443394 37.00592541 225.28940631 41.796875 229.49609375 C43.60935133 232.96343977 43.66109004 235.20391309 43.04296875 239.02734375 C41.26935116 243.89408188 37.05372946 246.26985477 32.671875 248.62109375 C29.7873636 249.36071206 27.1998417 249.38402243 24.234375 249.24609375 C23.80125 248.29734375 23.368125 247.34859375 22.921875 246.37109375 C21.44135299 243.04567438 21.44135299 243.04567438 18.234375 241.24609375 C14.77636558 240.80464574 12.97250293 240.73354199 10.07421875 242.74609375 C7.13558878 246.7391366 7.72130333 251.11133245 7.74609375 255.87109375 C7.64390217 261.12931516 6.65874958 264.02654605 3.234375 268.24609375 C-1.97217266 273.10553823 -8.16147023 273.70759711 -15.015625 273.55859375 C-21.28161148 272.84654983 -25.69588052 270.05225654 -29.67532229 265.16782761 C-31.84694088 261.3401998 -31.44968348 257.13967409 -31.40054321 252.84619141 C-31.40834317 251.79990885 -31.41614312 250.75362629 -31.42417943 249.6756382 C-31.44412118 246.17011925 -31.42832529 242.66568324 -31.41259766 239.16015625 C-31.41937275 236.64686448 -31.42827527 234.13357768 -31.43914795 231.62030029 C-31.45959109 225.50284598 -31.45658448 219.3857926 -31.44208474 213.26833296 C-31.43078796 208.29615227 -31.42926348 203.32405752 -31.43470383 198.35186768 C-31.43546999 197.64392048 -31.43623616 196.93597327 -31.43702554 196.20657313 C-31.43862418 194.7683447 -31.44024525 193.33011629 -31.4418885 191.8918879 C-31.45614267 178.40889461 -31.43975855 164.92607135 -31.41288666 151.44310594 C-31.39054812 139.87669902 -31.39442834 128.31054301 -31.41748047 116.74414062 C-31.44424441 103.30906481 -31.45476941 89.87413798 -31.43941915 76.43903923 C-31.43782642 75.00613278 -31.43625457 73.57322632 -31.43470383 72.14031982 C-31.43393245 71.43532179 -31.43316107 70.73032377 -31.43236632 70.00396216 C-31.42805108 65.03835128 -31.43533203 60.072835 -31.44710159 55.10723877 C-31.46259765 48.42255259 -31.45154882 41.73841345 -31.42263031 35.05374908 C-31.41601232 32.59873493 -31.41792922 30.14368093 -31.42894363 27.68868256 C-31.44258139 24.34057931 -31.42550233 20.99400178 -31.40054321 17.64599609 C-31.41169682 16.6714831 -31.42285043 15.6969701 -31.43434203 14.69292641 C-31.37008575 10.25765407 -31.21366278 7.21125244 -28.35973167 3.68740845 C-19.99357684 -4.18598279 -10.17413588 -4.56572247 0 0 Z " fill="#FDCA63" transform="translate(294.765625,120.75390625)"/>
<path d="M0 0 C2.73052141 3.22697985 3.13633065 5.22915269 3.0625 9.4375 C1.875 12.1875 1.875 12.1875 -0.9375 14.4375 C-3.87878253 15.33038934 -6.83284541 15.98276074 -9.8359375 16.63671875 C-14.39747703 17.81444621 -18.0501471 19.82086787 -21.9375 22.4375 C-22.55238281 22.84484375 -23.16726562 23.2521875 -23.80078125 23.671875 C-30.75459565 28.91421845 -35.13842024 37.19835248 -37.5625 45.4375 C-38.47261348 48.45293622 -39.04898303 49.56756353 -41.1875 52.0625 C-44.89680943 53.91715471 -46.98869135 53.53439129 -50.9375 52.4375 C-53.01512513 50.85270688 -53.82212063 49.94420774 -54.40625 47.37890625 C-54.56664551 35.16879825 -48.46175044 25.62408484 -40.9375 16.4375 C-40.41671875 15.79039062 -39.8959375 15.14328125 -39.359375 14.4765625 C-31.24338755 5.41780883 -12.16850183 -6.47260736 0 0 Z " fill="#2E1401" transform="translate(235.9375,217.5625)"/>
<path d="M0 0 C7.41705586 3.49037923 13.08724992 8.27795405 16.4375 15.875 C19.15386684 23.65956644 18.7141682 30.03172207 15.39453125 37.57421875 C11.66350068 44.06433076 5.8293465 49.03632133 -1 52 C-4.17650086 51.81198282 -5.53820237 51.49515548 -7.73046875 49.14453125 C-8.21128906 48.37496094 -8.69210937 47.60539062 -9.1875 46.8125 C-9.67605469 46.05582031 -10.16460937 45.29914063 -10.66796875 44.51953125 C-14.84356836 36.62140296 -15.22803226 27.74070024 -14 19 C-12.01307512 12.93600849 -9.59043063 7.43152449 -4 4 C-3.34 4 -2.68 4 -2 4 C-2 3.01 -2 2.02 -2 1 C-1.34 0.67 -0.68 0.34 0 0 Z " fill="#FDE4C0" transform="translate(362,228)"/>
<path d="M0 0 C0.66 -0.0103125 1.32 -0.020625 2 -0.03125 C5.05417002 0.78001391 6.15862233 1.93421222 8 4.5 C8.3784012 7.3663146 8.52405575 9.77239639 8.4375 12.625 C8.42283691 13.3876416 8.40817383 14.1502832 8.39306641 14.93603516 C7.93550394 28.65416606 1.95371963 40.21418958 -7.4375 50.12890625 C-12.72370128 55.02025408 -18.35075456 60.16615736 -25.71484375 60.83984375 C-29 60.5 -29 60.5 -31.4375 58.4375 C-33.45060478 54.65286301 -33.81606683 52.72870993 -33 48.5 C-30.97338235 46.09377421 -28.51892593 44.36428981 -26 42.5 C-18.18169613 35.98716431 -10.93292794 28.92665936 -9 18.5 C-8.81097842 14.9379933 -8.68374627 11.37780962 -8.57421875 7.8125 C-7.70635412 2.80604281 -5.25443763 -0.08210059 0 0 Z " fill="#2D1301" transform="translate(309,228.5)"/>
<path d="M0 0 C2.77888613 0.69140522 2.77888613 0.69140522 5 1 C4.01 1.33 3.02 1.66 2 2 C2.32097656 2.98484375 2.64195312 3.9696875 2.97265625 4.984375 C4.13841298 9.09395144 4.42200103 12.99214233 4.4375 17.25 C4.44330078 18.35782837 4.44330078 18.35782837 4.44921875 19.48803711 C4.31075157 26.11210504 2.43581105 31.31864102 -1 37 C-10.32639837 36.05596666 -18.94482567 34.0222058 -25.796875 27.21484375 C-29.09104148 22.70849803 -29.8257288 18.19732958 -29.54296875 12.6796875 C-28.43355131 7.20443307 -25.29908018 3.73621686 -20.92578125 0.43359375 C-12.77858285 -4.85229653 -8.78285076 -3.7640789 0 0 Z " fill="#F6B239" transform="translate(177,183)"/>
<path d="M0 0 C3.62664042 2.44404028 6.41436505 5.31635281 8.875 8.9375 C8.875 9.5975 8.875 10.2575 8.875 10.9375 C13.33 11.9275 13.33 11.9275 17.875 12.9375 C18.04182272 17.85877034 18.12328052 21.44093896 15.875 25.9375 C14.1734375 25.504375 14.1734375 25.504375 12.4375 25.0625 C8.39726866 24.51575516 6.70384416 25.43642343 3.5 27.875 C-0.73609084 31.03374594 -3.67046595 31.62560515 -8.90234375 31.26171875 C-14.56054625 30.43635705 -17.35616176 28.2156407 -21.125 23.9375 C-23.829379 19.45218848 -23.77875464 15.03840036 -23.125 9.9375 C-18.40956438 0.50662876 -10.03688807 -3.41254195 0 0 Z " fill="#0085FB" transform="translate(424.125,464.0625)"/>
<path d="M0 0 C4.41312574 2.12775705 7.47505015 4.79175025 10 9 C11.25321383 13.55792154 11.23837648 17.12098675 10 21.6875 C7.27785414 26.19605408 3.7399971 29.63000145 -1 32 C-7.01185984 32.62523342 -10.60239961 31.69880019 -16 29 C-19.61593648 29.24514824 -22.57010213 29.85670071 -26 31 C-27.32 28.36 -28.64 25.72 -30 23 C-27 20 -27 20 -24.890625 18.609375 C-22.51201507 16.58460787 -22.33312392 15.27848232 -21.75 12.25 C-20.37896722 7.30267538 -18.50191501 4.39140028 -14.44921875 1.22265625 C-9.74799452 -1.12420688 -5.08212477 -0.9018982 0 0 Z " fill="#0086FD" transform="translate(63,371)"/>
<path d="M0 0 C3.375 1.875 3.375 1.875 6 4 C9.20380017 6.13586678 10.01939967 6.23132175 13.6875 6.125 C14.49574219 6.10695313 15.30398437 6.08890625 16.13671875 6.0703125 C16.75160156 6.04710938 17.36648437 6.02390625 18 6 C19.49821059 9.37097383 20 11.20442119 20 15 C18.989375 15.268125 17.97875 15.53625 16.9375 15.8125 C12.98795426 17.44158828 11.61517135 19.86919566 9.5 23.5 C5.84548703 29.66139492 5.84548703 29.66139492 2.5625 31.1875 C-4.47041883 32.79149903 -9.52104366 32.61326411 -16 29 C-20.63932556 24.11649941 -21.35722356 20.02813566 -21.28125 13.50390625 C-20.72745653 8.57360603 -17.98376992 5.88779237 -14.4375 2.6875 C-9.91098936 -0.44623814 -5.34269819 -0.68496131 0 0 Z " fill="#0085FB" transform="translate(63,101)"/>
<path d="M0 0 C0.515625 0.9075 1.03125 1.815 1.5625 2.75 C3.49308602 5.94776604 5.38114714 6.73796131 8.875 7.9375 C14.75246595 9.99504717 18.22585187 13.45170373 21 19 C21.70455923 24.56717295 21.17560612 29.3565892 18.390625 34.26953125 C15.41885778 37.96754495 11.5580574 39.57609335 6.94921875 40.33984375 C2.02876443 40.57870076 -1.77670071 39.43651882 -6 37 C-10.57169373 31.22522897 -11.76935044 26.20624909 -11 19 C-10 17.33333333 -9 15.66666667 -8 14 C-7.72619956 10.98282654 -7.84721903 8.02166802 -8 5 C-8 4.01 -8 3.02 -8 2 C-5.09399739 0.74335022 -3.20395416 0 0 0 Z " fill="#0085FB" transform="translate(440,229)"/>
<path d="M0 0 C4.96091975 2.21519493 7.84713433 4.87544037 10.95703125 9.3046875 C12.49736163 13.92567865 12.49558675 17.75238046 10.89453125 22.3671875 C8.1221489 26.57047688 4.49244889 30.03697868 -0.04296875 32.3046875 C-5.50729631 33.10707017 -9.86522297 32.96172816 -14.48046875 29.7421875 C-19.22501278 25.64941922 -20.7586848 21.54342357 -21.54296875 15.3671875 C-21.32524603 10.49209177 -19.21849291 6.92014574 -16.04296875 3.3046875 C-11.22197114 -0.77197556 -6.06325539 -2.06359361 0 0 Z " fill="#0085FB" transform="translate(459.04296875,103.6953125)"/>
<path d="M0 0 C3.3125 1.625 3.3125 1.625 6 4 C6.94875 4.825 7.8975 5.65 8.875 6.5 C11.87813264 10.30979933 11.635398 14.48783373 11.41015625 19.16015625 C10.71774185 23.95430168 8.90552627 26.41908771 5.234375 29.46484375 C1.31697501 32.2486654 -2.12812217 33.8341722 -6.984375 33.48046875 C-12.2077107 32.23537129 -16.50322443 29.26545524 -19.5 24.8125 C-21.67409875 20.36724451 -21.77541079 15.82833111 -21 11 C-16.80336281 2.10312915 -9.61884348 -1.70400042 0 0 Z " fill="#0085FB" transform="translate(100,19)"/>
<path d="M0 0 C5.00230198 2.45567552 8.49851535 5.9970307 11 11 C11.3962444 16.84460492 10.95926533 20.77196458 8 26 C3.91896642 30.31519124 0.10063599 32.13991999 -5.8125 32.3125 C-10.67068222 32.24885569 -13.3127617 31.33607275 -17 28 C-21.04999401 22.63649442 -22.56217075 18.746049 -22 12 C-18.03790434 1.6856314 -10.38744497 -1.05784447 0 0 Z " fill="#0085FC" transform="translate(261,453)"/>
<path d="M0 0 C5.08574912 2.19049119 8.82642325 5.12811802 10.9609375 10.3359375 C11.93450201 16.24285296 11.44438619 21.34299438 7.9609375 26.3359375 C3.96360417 30.25865394 0.84871702 32.48613779 -4.7890625 32.6484375 C-9.6713076 32.59215802 -12.29779496 31.63181605 -16.0390625 28.3359375 C-20.65948184 23.09113716 -21.40756595 19.985814 -21.30859375 13.09375 C-20.92062204 9.12406841 -19.78206074 7.21608565 -17.0390625 4.3359375 C-11.65979573 -0.0514905 -6.97070363 -2.27015252 0 0 Z " fill="#0085FB" transform="translate(261.0390625,27.6640625)"/>
<path d="M0 0 C5.28097404 1.79353835 7.79895251 4.60999202 11 9 C12.70108067 14.10324201 12.56521247 18.31873434 10.3125 23.1875 C7.83698495 27.71716583 4.93990878 30.35336374 0 32 C-4.9388636 32.51853818 -8.85354834 32.55199525 -13.375 30.375 C-18.23350167 25.97921277 -20.7763358 21.72870321 -21.3125 15.1875 C-21.24804334 10.79639006 -19.84937886 8.38845054 -17 5 C-11.29547523 -0.02541467 -7.4679183 -0.62136762 0 0 Z " fill="#0086FC" transform="translate(98,463)"/>
<path d="M0 0 C4.8846525 2.26787438 7.73212562 5.1153475 10 10 C10.83838768 15.63365183 11.10791838 21.12840516 7.9375 26.0625 C4.59301809 29.90350164 0.81058484 31.60759723 -4.23828125 32.3125 C-9.65955489 32.6040643 -12.77893894 31.6320758 -17 28 C-21.3796389 23.028518 -22.36205226 20.1280242 -22.27734375 13.60546875 C-21.71627112 8.33454697 -19.28136117 5.24932714 -15.5 1.5625 C-10.32575261 -0.74743187 -5.57666708 -0.75070518 0 0 Z " fill="#0085FC" transform="translate(460,372)"/>
<path d="M0 0 C3.83084349 2.61193874 6.65161815 5.67823629 8.75 9.875 C9.51038689 16.69355126 9.0042913 21.42078038 4.75 26.875 C-0.1877116 30.80501535 -4.31148033 31.574474 -10.59375 31.32421875 C-16.04134206 30.4029348 -18.99187789 27.57955253 -22.1875 23.25 C-24.11230742 17.13590585 -24.36245277 11.3223961 -21.6875 5.4375 C-15.31392484 -1.26292516 -8.73742306 -3.0244926 0 0 Z " fill="#0086FD" transform="translate(76.25,238.125)"/>
<path d="M0 0 C3.40920514 2.411389 5.69634878 5.08019755 7.5625 8.8125 C8.07671665 13.89565807 8.36984489 19.07432313 6.0625 23.75 C2.45885611 28.16446376 -1.10783098 30.2660061 -6.74609375 31.19140625 C-12.11725557 31.47219211 -15.26922246 30.39915742 -19.4375 26.8125 C-23.66737293 22.12534351 -24.85591485 18.42690023 -24.78515625 12.23046875 C-24.04012928 7.04876434 -21.03849653 3.31932026 -17.3125 -0.1875 C-11.58558468 -2.17947055 -5.69687855 -1.96801259 0 0 Z " fill="#0085FC" transform="translate(425.4375,18.1875)"/>
<path d="M0 0 C3.76362059 1.16330091 4.99934328 2.04186609 7.4375 5.0625 C8.125 7.76171875 8.125 7.76171875 8.4375 10.75 C9.52850438 18.59757537 11.92556085 25.21650393 17.4375 31.0625 C18.324375 31.68125 19.21125 32.3 20.125 32.9375 C22.4375 35.0625 22.4375 35.0625 23.5625 38.4375 C23.44043223 41.9774654 23.34037183 42.80953953 21.375 45.5 C18.4375 48.0625 18.4375 48.0625 15.625 48.8125 C8.30376174 47.0898557 2.69062127 41.04226155 -1.5625 35.0625 C-7.07647689 26.10929685 -10.18649546 15.57980394 -8.5625 5.0625 C-5.97877717 0.91288454 -4.89033168 0.08579529 0 0 Z " fill="#2F1402" transform="translate(215.5625,291.9375)"/>
<path d="M0 0 C3.04268405 5.10722732 2.32894278 10.60029594 2.3125 16.375 C2.32861328 17.4990625 2.34472656 18.623125 2.36132812 19.78125 C2.36526915 26.44946127 2.19626443 31.49576218 -2.5 36.64453125 C-7.47965583 40.52191951 -10.70746112 41.3371003 -17 41 C-17.99 40.34 -18.98 39.68 -20 39 C-20.60952647 34.81127743 -20.51479334 30.58926146 -20.50097656 26.36132812 C-20.50000958 24.27071052 -20.54148869 22.18383181 -20.5859375 20.09375 C-20.68645006 8.91618231 -20.68645006 8.91618231 -17.640625 5.1640625 C-11.76930327 0.352358 -7.37390443 -0.44243427 0 0 Z " fill="#FDE4BF" transform="translate(284,119)"/>
<path d="M0 0 C0.886875 -0.00257813 1.77375 -0.00515625 2.6875 -0.0078125 C5 0.125 5 0.125 7 1.125 C7.0872253 5.52070794 7.14046869 9.91619271 7.1875 14.3125 C7.21263672 15.55837891 7.23777344 16.80425781 7.26367188 18.08789062 C7.27333984 19.28994141 7.28300781 20.49199219 7.29296875 21.73046875 C7.3086792 22.83543701 7.32438965 23.94040527 7.34057617 25.07885742 C6.86539796 29.32889219 5.23243483 31.93506292 2.1875 34.875 C-0.78423354 36.57313345 -2.54000582 37.19284302 -6 37.125 C-10.61212083 34.40009354 -13.45236397 31.28625507 -15 26.125 C-15.30078125 22.78515625 -15.30078125 22.78515625 -15.3125 19.1875 C-15.32925781 18.00285156 -15.34601563 16.81820313 -15.36328125 15.59765625 C-14.69182055 9.17906953 -11.70867934 5.35073787 -7 1.125 C-4.51245214 -0.11877393 -2.77344699 -0.00806235 0 0 Z " fill="#F8B33A" transform="translate(240,355.875)"/>
<path d="M0 0 C2.64 0.66 5.28 1.32 8 2 C8.16682272 6.92127034 8.24828052 10.50343896 6 15 C4.2984375 14.566875 4.2984375 14.566875 2.5625 14.125 C-1.51273734 13.56862894 -3.38271978 14.5698135 -6.6875 16.9375 C-7.39261719 17.50339844 -8.09773438 18.06929688 -8.82421875 18.65234375 C-11.41712443 20.25836253 -13.00427795 20.25707597 -16 20 C-16.48932306 17.30872319 -16.41389208 15.59923769 -14.83984375 13.3203125 C-13.79796466 12.12121891 -12.73284522 10.94202446 -11.6484375 9.78125 C-10.10495021 8.11340591 -8.7881262 6.3862755 -7.4375 4.5625 C-5 2 -5 2 -2.1875 1.625 C-1.465625 1.74875 -0.74375 1.8725 0 2 C0 1.34 0 0.68 0 0 Z " fill="#005CE8" transform="translate(434,475)"/>
<path d="M0 0 C0.55440329 6.12307634 0.60479761 10.71546528 -3.43359375 15.59375 C-6.80554633 18.62093935 -10.44014644 20 -15 20 C-15.59071538 16.70887148 -15.39069336 14.62908253 -13.6171875 11.7734375 C-11.8160937 9.44215158 -9.951268 7.20683948 -8 5 C-7.27103516 4.1646875 -7.27103516 4.1646875 -6.52734375 3.3125 C-3.45010653 0 -3.45010653 0 0 0 Z " fill="#005CE8" transform="translate(470,384)"/>
<path d="M0 0 C0.31646072 5.27434536 -0.07078192 8.55892743 -3 13 C-6.1932006 16.53149833 -9.11831456 19.1809591 -13.9375 19.875 C-15.4534375 19.936875 -15.4534375 19.936875 -17 20 C-16.74726956 14.81902605 -15.00486547 12.38920924 -11.6171875 8.7421875 C-10.09298238 7.10016943 -8.74114122 5.39843798 -7.375 3.625 C-4.87809957 0.86526794 -3.63323292 0 0 0 Z " fill="#015BE3" transform="translate(471,116)"/>
<path d="M0 0 C0.31571333 5.26188885 -0.10085653 8.55464669 -3 13 C-7.14979733 17.24411091 -10.07771837 18.6446631 -16 19 C-16.25532751 15.93606987 -16.21861333 14.36766788 -14.625 11.6875 C-13.820625 10.8521875 -13.820625 10.8521875 -13 10 C-12.34 10 -11.68 10 -11 10 C-10.731875 9.443125 -10.46375 8.88625 -10.1875 8.3125 C-5.91891892 0 -5.91891892 0 0 0 Z " fill="#005CE7" transform="translate(272,41)"/>
<path d="M0 0 C-0.38778569 6.13771141 -0.75545163 10.94630741 -5.4609375 15.375 C-9.39016784 18.748388 -11.51569729 20.13549004 -16.625 20.0625 C-17.85089844 20.04896484 -17.85089844 20.04896484 -19.1015625 20.03515625 C-19.72804687 20.02355469 -20.35453125 20.01195312 -21 20 C-21 19.67 -21 19.34 -21 19 C-19.35 19 -17.7 19 -16 19 C-15.938125 17.7315625 -15.938125 17.7315625 -15.875 16.4375 C-14.69719559 11.81041123 -12.26233294 9.37238754 -9 6 C-8.113125 5.05125 -7.22625 4.1025 -6.3125 3.125 C-2.91176471 0 -2.91176471 0 0 0 Z " fill="#025BE0" transform="translate(74,383)"/>
<path d="M0 0 C0.66 0.66 1.32 1.32 2 2 C0.9171875 2.99 0.9171875 2.99 -0.1875 4 C-2.41909309 6.18783636 -3.86074992 8.39834371 -5.375 11.125 C-7.94405793 15.43386299 -10.22931783 16.58646454 -15 18 C-15.99 18 -16.98 18 -18 18 C-17.73367639 11.47507153 -15.47370622 8.58725206 -11 4 C-10.360625 3.195625 -9.72125 2.39125 -9.0625 1.5625 C-6.02653291 -0.73747507 -3.69335785 -0.41037309 0 0 Z " fill="#005CE6" transform="translate(77,115)"/>
<path d="M0 0 C0.33 0 0.66 0 1 0 C1.30742993 5.84116863 0.96207376 9.76700302 -2 15 C-6.10724064 19.2939334 -9.08275106 20.64496506 -15 21 C-15.26993156 18.0099889 -15.31481734 16.4669201 -13.609375 13.9375 C-12.68898438 12.9784375 -12.68898438 12.9784375 -11.75 12 C-9.59209247 9.70749462 -7.6745433 7.55365938 -5.8125 5 C-5.214375 4.34 -4.61625 3.68 -4 3 C-2.68 3 -1.36 3 0 3 C0 2.01 0 1.02 0 0 Z " fill="#015CE5" transform="translate(271,464)"/>
<path d="M0 0 C0.50090332 6.91524861 0.34157442 11.43387895 -4 17 C-7.57747026 19.79723312 -10.36448808 21 -15 21 C-14.7351072 14.51012639 -12.50291691 11.53685849 -8 7 C-6.9171875 5.88625 -6.9171875 5.88625 -5.8125 4.75 C-4.9153125 3.88375 -4.9153125 3.88375 -4 3 C-3.443125 2.4225 -2.88625 1.845 -2.3125 1.25 C-1 0 -1 0 0 0 Z " fill="#005DE7" transform="translate(85,248)"/>
<path d="M0 0 C1.32 0 2.64 0 4 0 C4.30880348 4.47765047 4.42531116 7.09621378 2.5 11.1875 C-1.04222677 15.17250512 -4.84696492 18.57637794 -10.296875 19.30859375 C-12.5 19.3125 -12.5 19.3125 -16 19 C-16 18.67 -16 18.34 -16 18 C-14.35 18 -12.7 18 -11 18 C-11.06703125 17.2575 -11.1340625 16.515 -11.203125 15.75 C-10.95302136 12.36398145 -10.06985174 11.4173245 -7.75 9 C-5.59209247 6.70749462 -3.6745433 4.55365938 -1.8125 2 C-1.214375 1.34 -0.61625 0.68 0 0 Z " fill="#015CE4" transform="translate(107,33)"/>
<path d="M0 0 C0.53356446 6.40277351 0.19101686 11.85700701 -4 17 C-7.53011956 19.52151397 -10.64076564 21 -15 21 C-14.7351072 14.51012639 -12.50291691 11.53685849 -8 7 C-6.9171875 5.88625 -6.9171875 5.88625 -5.8125 4.75 C-4.9153125 3.88375 -4.9153125 3.88375 -4 3 C-3.443125 2.4225 -2.88625 1.845 -2.3125 1.25 C-1 0 -1 0 0 0 Z " fill="#005DE8" transform="translate(461,248)"/>
<path d="M0 0 C0.49773034 5.97276406 -0.66097664 9.9969031 -4 15 C-7.44916647 18.53993401 -10.10494044 19.54464562 -15 20 C-14.73450266 13.49531514 -12.50393859 10.54724569 -8 6 C-7.0925 5.05125 -6.185 4.1025 -5.25 3.125 C-1.94117647 0 -1.94117647 0 0 0 Z " fill="#015BE4" transform="translate(110,475)"/>
<path d="M0 0 C0.39165333 4.79775329 0.01599758 8.27494472 -2.58984375 12.421875 C-5.13786338 15.27339835 -8.40483564 16.8114549 -12 18 C-12.99 18 -13.98 18 -15 18 C-14.6517604 12.07992681 -13.34252158 9.9289481 -9 6 C-7.98343919 4.34338239 -6.97934924 2.67888441 -6 1 C-4 0 -4 0 0 0 Z " fill="#005DE9" transform="translate(433,31)"/>
<path d="M0 0 C0.33468319 6.35898058 -0.15819703 13.23729554 -3.75 18.625 C-6.64564286 20.39455953 -8.66726377 20.30297602 -12 20 C-12 19.01 -12 18.02 -12 17 C-11.05640625 16.31744141 -11.05640625 16.31744141 -10.09375 15.62109375 C-7.47300849 13.59197486 -7.22814641 12.24814054 -6.5 9.0625 C-4.09215328 0 -4.09215328 0 0 0 Z " fill="#24A1F7" transform="translate(48,374)"/>
<path d="M0 0 C0.66 0 1.32 0 2 0 C2.19944639 4.2880973 1.71483097 7.09399612 0 11 C-0.309375 12.2375 -0.61875 13.475 -0.9375 14.75 C-1.288125 15.8225 -1.63875 16.895 -2 18 C-2.99 18.33 -3.98 18.66 -5 19 C-6.24049993 15.27850021 -6.54809207 11.86587605 -6 8 C-4.25364203 4.85655565 -2.53137274 2.53137274 0 0 Z " fill="#25A0F4" transform="translate(83,466)"/>
<path d="M0 0 C0.66 0.33 1.32 0.66 2 1 C1.4593127 5.00108603 0.59854665 8.89792501 -0.375 12.8125 C-0.60960937 13.76769531 -0.84421875 14.72289062 -1.0859375 15.70703125 C-1.38757813 16.46371094 -1.68921875 17.22039062 -2 18 C-2.99 18.33 -3.98 18.66 -5 19 C-6.36161941 14.91514177 -6.90744411 11.13743943 -5.17578125 7.05859375 C-3.6889782 4.41108943 -2.14956611 2.14956611 0 0 Z " fill="#249EF2" transform="translate(245,456)"/>
<path d="M0 0 C0.18662039 4.10564861 -0.18000287 6.39370939 -2 10 C-2.56820565 12.34779417 -3.00204434 14.69865261 -3.4375 17.07421875 C-3.623125 17.70972656 -3.80875 18.34523438 -4 19 C-4.66 19.33 -5.32 19.66 -6 20 C-7.97105392 16.05789216 -7.45383884 11.29634099 -7 7 C-5.77345924 3.98887151 -3.73465451 0 0 0 Z " fill="#25A0F5" transform="translate(60,240)"/>
<path d="M0 0 C0.66 0 1.32 0 2 0 C2.18603535 4.0927776 1.84865614 6.41143221 0 10 C-0.2165625 11.794375 -0.2165625 11.794375 -0.4375 13.625 C-0.623125 14.73875 -0.80875 15.8525 -1 17 C-1.99 17.66 -2.98 18.32 -4 19 C-5.85143856 15.29712287 -5.4703092 11.04094612 -5 7 C-3.78858572 4.2412793 -2.14122175 2.14122175 0 0 Z " fill="#25A1F7" transform="translate(84,23)"/>
<path d="M0 0 C0.66 0 1.32 0 2 0 C2.20010667 4.30229338 1.68273933 7.07360824 0 11 C-0.73404374 13.65346893 -1.36417643 16.32045783 -2 19 C-2.66 19 -3.32 19 -4 19 C-5.75356827 15.49286347 -5.55792165 11.8266148 -5 8 C-3.69607431 5.04670562 -2.16366531 2.40625809 0 0 Z " fill="#25A1F7" transform="translate(406,20)"/>
<path d="M0 0 C0.66 0.33 1.32 0.66 2 1 C2.18652752 5.1036054 1.82809812 7.39757134 0 11 C-0.42151885 12.57158878 -0.7968834 14.15629082 -1.125 15.75 C-1.29257812 16.54921875 -1.46015625 17.3484375 -1.6328125 18.171875 C-1.75398438 18.77515625 -1.87515625 19.3784375 -2 20 C-2.66 20 -3.32 20 -4 20 C-5.75666663 16.48666675 -5.55611276 12.83362837 -5 9 C-3.62077257 5.79787758 -1.92242327 2.9042323 0 0 Z " fill="#25A2F9" transform="translate(434,239)"/>
<path d="M0 0 C0.66 0 1.32 0 2 0 C2.18585528 4.0888162 1.89108917 6.42794267 0 10 C-0.75717513 12.65011297 -1.37338344 15.31450047 -2 18 C-2.99 17.67 -3.98 17.34 -5 17 C-5.47657187 10.3015176 -5.41492287 6.21763612 -1 1 C-0.67 0.67 -0.34 0.34 0 0 Z " fill="#259FF3" transform="translate(406,467)"/>
<path d="M0 0 C0.66 0 1.32 0 2 0 C1.31195504 6.19240462 -0.28048715 12.01955594 -2 18 C-2.99 17.67 -3.98 17.34 -5 17 C-5.47657187 10.3015176 -5.41492287 6.21763612 -1 1 C-0.67 0.67 -0.34 0.34 0 0 Z " fill="#24A2FA" transform="translate(47,105)"/>
<path d="M0 0 C0.66 0 1.32 0 2 0 C1.31195504 6.19240462 -0.28048715 12.01955594 -2 18 C-2.99 18 -3.98 18 -5 18 C-5.44571269 11.04192963 -5.68605882 6.39606774 -1 1 C-0.67 0.67 -0.34 0.34 0 0 Z " fill="#24A1F8" transform="translate(245,31)"/>
<path d="M0 0 C0.66 0 1.32 0 2 0 C1.31993504 6.12058468 0.09789884 12.19815537 -2 18 C-2.66 18.33 -3.32 18.66 -4 19 C-5.55294931 14.34115206 -6.00079561 10.19950975 -3.953125 5.69921875 C-2.72888714 3.67202488 -1.5627743 1.78061557 0 0 Z " fill="#24A0F6" transform="translate(443,107)"/>
<path d="M0 0 C-0.29903949 2.34247598 -0.63112716 4.66804527 -1 7 C-1.12246094 7.79148437 -1.24492187 8.58296875 -1.37109375 9.3984375 C-1.51675781 10.19507813 -1.66242188 10.99171875 -1.8125 11.8125 C-1.94269531 12.56144531 -2.07289063 13.31039063 -2.20703125 14.08203125 C-3 16 -3 16 -5.07421875 17.26171875 C-6.02748047 17.62716797 -6.02748047 17.62716797 -7 18 C-7.50350402 11.04884731 -7.13500456 6.71603571 -3 1 C-1 0 -1 0 0 0 Z " fill="#25A0F4" transform="translate(445,375)"/>
<path d="M0 0 C1.98 0 3.96 0 6 0 C6.16682272 4.92127034 6.24828052 8.50343896 4 13 C3.67 13 3.34 13 3 13 C2.92652344 11.96939453 2.92652344 11.96939453 2.8515625 10.91796875 C2.77679688 10.01691406 2.70203125 9.11585938 2.625 8.1875 C2.55539062 7.29417969 2.48578125 6.40085937 2.4140625 5.48046875 C2.13354964 2.75601501 2.13354964 2.75601501 0 0 Z " fill="#0082FB" transform="translate(436,477)"/>
</svg>
